<svg width="23" height="26" viewBox="0 0 23 38" fill="none" xmlns="http://www.w3.org/2000/svg">
<path d="M2.31389 20.2219H6.62565V36.5972C6.62565 36.9204 6.90992 37.1826 7.26027 37.1826H14.5715C14.9219 37.1826 15.2061 36.9204 15.2061 36.5972V20.2991H20.1633C20.486 20.2991 20.7572 20.0759 20.7933 19.7804L21.5462 13.7518C21.567 13.586 21.5101 13.4202 21.3895 13.2954C21.2689 13.1707 21.0968 13.0998 20.9162 13.0998H15.2061V9.32083C15.2061 8.1819 15.8707 7.60428 17.183 7.60428C17.3697 7.60428 20.9162 7.60428 20.9162 7.60428C21.2666 7.60428 21.5509 7.34204 21.5509 7.01886V1.48505C21.5509 1.16187 21.2666 0.899638 20.9162 0.899638H15.7716C15.7347 0.898221 15.6541 0.895386 15.5358 0.895386C14.643 0.895386 11.5398 1.05698 9.08885 3.13712C6.37287 5.44192 6.75011 8.20174 6.84077 8.68085V13.0998H2.31389C1.96354 13.0998 1.67926 13.362 1.67926 13.6852V19.6372C1.67926 19.9597 1.96354 20.2219 2.31389 20.2219Z" fill="#385C8E"/>
</svg>
