<svg width="23" height="26" viewBox="0 0 16 26" fill="none" xmlns="http://www.w3.org/2000/svg">
<path d="M11.6673 6.6696C11.6673 6.6696 11.8006 6.55876 12.385 6.55876H14.5126C15.3021 6.55876 15.948 5.92398 15.948 5.14814V1.49061C15.948 0.714768 15.3072 0.0799891 14.5126 0.0799891L11.3546 0.0749512C9.35521 0.0749512 7.64805 0.724844 6.42791 1.95914C5.21291 3.18335 4.57208 4.89121 4.57208 6.89126V8.68477H2.33688C1.54225 8.68477 0.901428 9.31954 0.901428 10.0954V14.035C0.901428 14.8159 1.54738 15.4457 2.33688 15.4457H4.57208V24.4585C4.57208 25.2394 5.21803 25.8691 6.00753 25.8691H10.155C10.9496 25.8691 11.5904 25.2344 11.5904 24.4585V15.4457H14.3639C15.1585 15.4457 15.7994 14.8109 15.7994 14.035V10.0954C15.7994 9.58655 15.5174 9.11299 15.0611 8.86109C14.8509 8.74522 14.6049 8.68477 14.3537 8.68477H11.5904V7.30437C11.5904 6.77539 11.6673 6.6696 11.6673 6.6696ZM10.2626 5.44538C9.77559 5.98948 9.70894 6.68975 9.70894 7.30437V9.53114C9.70894 10.0853 10.1652 10.5337 10.7291 10.5337H13.923V13.6018H10.7291C10.1652 13.6018 9.70894 14.0502 9.70894 14.6043V24.0252H6.44842V14.6043C6.44842 14.0502 5.99215 13.6018 5.42822 13.6018H2.77264V10.5337H5.42822C5.99215 10.5337 6.44842 10.0853 6.44842 9.53114V6.89126C6.44842 3.82317 8.32989 1.91883 11.3495 1.91883L14.0666 1.92387V4.70984H12.3799C11.7545 4.71488 10.8522 4.79045 10.2626 5.44538Z" fill="white"/>
</svg>
