<svg width="34" height="28" viewBox="0 0 34 34" fill="none" xmlns="http://www.w3.org/2000/svg">
<path d="M5.94317 1.19114C4.8367 1.62165 3.90086 2.19523 2.96567 3.13042C2.02983 4.05904 1.45625 5.00145 1.02639 6.10136C0.609659 7.16649 0.330088 8.38912 0.248054 10.1788C0.16602 11.9684 0.14502 12.542 0.14502 17.1044C0.14502 21.6668 0.165364 22.2404 0.247398 24.0294C0.329432 25.819 0.616222 27.041 1.02573 28.1068C1.45625 29.2132 2.02983 30.1491 2.96502 31.0843C3.9002 32.0195 4.83604 32.5937 5.94252 33.0236C7.00764 33.4403 8.23028 33.7199 10.0199 33.8019C11.8096 33.8839 12.3832 33.9043 16.9449 33.9043C21.5066 33.9043 22.0809 33.8839 23.8699 33.8019C25.6595 33.7199 26.8815 33.4331 27.9473 33.0236C29.0537 32.593 29.9896 32.0195 30.9248 31.0843C31.8606 30.1484 32.4342 29.2132 32.8641 28.1068C33.2808 27.0416 33.5604 25.819 33.6424 24.0294C33.7244 22.2397 33.7448 21.6661 33.7448 17.1044C33.7448 12.5427 33.7244 11.9684 33.6424 10.1794C33.5604 8.38977 33.2736 7.1678 32.8641 6.10201C32.4335 5.00276 31.86 4.0597 30.9313 3.13108C29.9955 2.19523 29.0603 1.62165 27.9538 1.1918C26.8887 0.775065 25.6661 0.495493 23.8764 0.413459C22.0868 0.331425 21.5145 0.310425 16.9521 0.310425C12.3897 0.310425 11.8161 0.330769 10.0271 0.412803C8.23093 0.488274 7.00896 0.775064 5.94317 1.19114ZM23.734 3.43165C25.3734 3.50646 26.2607 3.78013 26.8552 4.01245C27.6408 4.31958 28.2006 4.68184 28.788 5.26921C29.3753 5.85657 29.7376 6.41637 30.0447 7.20192C30.277 7.79585 30.55 8.68378 30.6255 10.3231C30.7076 12.0918 30.7213 12.6247 30.7213 17.1116C30.7213 21.5985 30.701 22.1314 30.6255 23.9001C30.5507 25.5394 30.277 26.4267 30.0447 27.0213C29.7376 27.8069 29.3753 28.3667 28.788 28.954C28.2006 29.5414 27.6408 29.9036 26.8552 30.2108C26.2613 30.4431 25.3734 30.7161 23.734 30.7916C21.9654 30.8736 21.4325 30.8874 16.9456 30.8874C12.4586 30.8874 11.9257 30.867 10.1571 30.7916C8.51772 30.7168 7.63044 30.4431 7.03586 30.2108C6.25031 29.9036 5.69051 29.5414 5.10315 28.954C4.51578 28.366 4.15418 27.8062 3.84639 27.0206C3.61407 26.4267 3.34106 25.5388 3.26559 23.8994C3.18421 22.1308 3.17043 21.5979 3.17043 17.111C3.17043 12.624 3.19077 12.0911 3.26624 10.3225C3.34106 8.68313 3.61472 7.79585 3.84704 7.20127C4.15418 6.41571 4.51644 5.85591 5.1038 5.26855C5.69116 4.68119 6.25031 4.31958 7.03586 4.01179C7.62979 3.77947 8.51772 3.50646 10.1571 3.43099C11.9257 3.34896 12.4586 3.33518 16.9456 3.33518C21.4325 3.33518 21.9654 3.34961 23.734 3.43165Z" fill="url(#paint0_radial)"/>
<path d="M8.32019 17.111C8.32019 21.8781 12.1856 25.7363 16.9456 25.7363C21.7055 25.7363 25.5709 21.8709 25.5709 17.111C25.5709 12.351 21.7127 8.4856 16.9456 8.4856C12.1784 8.4856 8.32019 12.3438 8.32019 17.111ZM22.5455 17.111C22.5455 20.2046 20.0392 22.7109 16.9456 22.7109C13.8519 22.7109 11.3456 20.2046 11.3456 17.111C11.3456 14.0173 13.8519 11.511 16.9456 11.511C20.0392 11.511 22.5455 14.0173 22.5455 17.111Z" fill="url(#paint1_radial)"/>
<path d="M25.9194 10.1584C27.0321 10.1584 27.9342 9.25637 27.9342 8.14366C27.9342 7.03094 27.0321 6.12891 25.9194 6.12891C24.8067 6.12891 23.9047 7.03094 23.9047 8.14366C23.9047 9.25637 24.8067 10.1584 25.9194 10.1584Z" fill="#654C9F"/>
<defs>
<radialGradient id="paint0_radial" cx="0" cy="0" r="1" gradientUnits="userSpaceOnUse" gradientTransform="translate(0.76229 30.8287) rotate(-2.99803) scale(48.579 41.2918)">
<stop stop-color="#FED576"/>
<stop offset="0.2634" stop-color="#F47133"/>
<stop offset="0.6091" stop-color="#BC3081"/>
<stop offset="1" stop-color="#4C63D2"/>
</radialGradient>
<radialGradient id="paint1_radial" cx="0" cy="0" r="1" gradientUnits="userSpaceOnUse" gradientTransform="translate(8.63881 24.1546) rotate(-2.99803) scale(24.946 21.2039)">
<stop stop-color="#FED576"/>
<stop offset="0.2634" stop-color="#F47133"/>
<stop offset="0.6091" stop-color="#BC3081"/>
<stop offset="1" stop-color="#4C63D2"/>
</radialGradient>
</defs>
</svg>
