<svg width="34" height="28" viewBox="0 0 27 28" fill="none" xmlns="http://www.w3.org/2000/svg">
<path d="M18.0146 0.870728H8.18845C3.66433 0.870728 0 4.53506 0 9.05917V18.8853C0 23.4094 3.66433 27.0738 8.18845 27.0738H18.0146C22.5387 27.0738 26.203 23.4094 26.203 18.8853V9.05917C26.203 4.53506 22.5387 0.870728 18.0146 0.870728ZM23.7465 18.8853C23.7465 22.0481 21.1774 24.6172 18.0146 24.6172H8.18845C5.02566 24.6172 2.45653 22.0481 2.45653 18.8853V9.05917C2.45653 5.89639 5.02566 3.32726 8.18845 3.32726H18.0146C21.1774 3.32726 23.7465 5.89639 23.7465 9.05917V18.8853Z" fill="white"/>
<path d="M13.1014 7.42157C9.48309 7.42157 6.5506 10.3541 6.5506 13.9723C6.5506 17.5906 9.48309 20.5231 13.1014 20.5231C16.7196 20.5231 19.6521 17.5906 19.6521 13.9723C19.6521 10.3541 16.7196 7.42157 13.1014 7.42157ZM13.1014 18.0666C10.8444 18.0666 9.00713 16.2293 9.00713 13.9723C9.00713 11.7154 10.8444 9.8781 13.1014 9.8781C15.3583 9.8781 17.1956 11.7154 17.1956 13.9723C17.1956 16.2293 15.3583 18.0666 13.1014 18.0666Z" fill="white"/>
<path d="M20.1437 7.80515C20.627 7.80515 21.0188 7.41334 21.0188 6.93001C21.0188 6.44668 20.627 6.05487 20.1437 6.05487C19.6604 6.05487 19.2686 6.44668 19.2686 6.93001C19.2686 7.41334 19.6604 7.80515 20.1437 7.80515Z" fill="white"/>
</svg>
