<svg width="28" height="28" viewBox="0 0 37 37" fill="none" xmlns="http://www.w3.org/2000/svg">
<path d="M18.9644 0C9.0038 0 0.928772 8.07547 0.928772 18.0366C0.928772 27.9978 9.0038 36.0725 18.9644 36.0725C28.9258 36.0725 37.0001 27.9978 37.0001 18.0366C37.0001 8.07621 28.9258 0.00146747 18.9644 0.00146747C18.9644 0.000733733 18.9644 0 18.9644 0ZM27.2353 26.0138C26.9125 26.5435 26.2184 26.7116 25.6887 26.3865C21.4538 23.8001 16.1236 23.2139 9.84535 24.6483C9.24005 24.7862 8.63769 24.4069 8.49975 23.8016C8.36109 23.1963 8.73894 22.5931 9.34497 22.4552C16.2153 20.885 22.1083 21.5615 26.8626 24.4671C27.3924 24.7921 27.5604 25.4833 27.2353 26.0138ZM29.443 21.1014C29.0358 21.764 28.1701 21.9724 27.509 21.5659C22.6608 18.5855 15.271 17.7226 9.5372 19.463C8.79323 19.6875 8.00818 19.2686 7.7822 18.526C7.55843 17.782 7.97736 16.9984 8.71986 16.7724C15.2695 14.7847 23.4128 15.7474 28.9801 19.1688C29.6411 19.576 29.8495 20.4418 29.443 21.1014ZM29.6323 15.9881C23.8193 12.5351 14.2292 12.2181 8.67951 13.902C7.78807 14.1721 6.84601 13.6695 6.57601 12.778C6.30601 11.8865 6.80859 10.9444 7.70076 10.6736C14.0714 8.7395 24.6623 9.11297 31.3543 13.0861C32.1577 13.5616 32.4204 14.5969 31.9442 15.3981C31.4702 16.2001 30.4321 16.4642 29.6331 15.9881H29.6323Z" fill="#1ED760"/>
</svg>
