<svg width="28" height="28" viewBox="0 0 28 28" fill="none" xmlns="http://www.w3.org/2000/svg">
<path d="M27.7699 11.4344C27.5663 10.3183 27.2279 9.23363 26.7649 8.20924C26.1499 6.84946 25.3278 5.60621 24.3223 4.51292C23.0296 3.10806 21.4983 2.00159 19.77 1.22393C18.1293 0.486285 16.3766 0.0779478 14.5596 0.0100604C13.5607 -0.0274297 12.5587 0.0399511 11.5821 0.210683C10.3299 0.429037 9.11421 0.819136 7.96941 1.37085C6.33883 2.15611 4.89466 3.2337 3.67742 4.5727C2.67597 5.6741 1.86296 6.92039 1.26017 8.27611C0.504397 9.97481 0.100171 11.79 0.0586343 13.6706C0.0373593 14.6383 0.117901 15.6166 0.298232 16.5786C0.50693 17.6917 0.849357 18.7728 1.3164 19.7911C2.20336 21.7249 3.48189 23.3912 5.11602 24.7434C6.82714 26.1589 8.79812 27.124 10.9743 27.6108C11.6662 27.7659 12.3602 27.8657 13.0364 27.9072C13.1367 27.9133 13.236 27.9219 13.3409 27.9305C13.389 27.9346 13.4366 27.9386 13.4847 27.9427L14.5616 27.9437L14.5844 27.9407C14.5991 27.9386 14.6133 27.9366 14.6275 27.9341C14.6396 27.932 14.6564 27.9295 14.6619 27.929C15.5069 27.8935 16.3589 27.778 17.1952 27.585C18.5669 27.2684 19.8774 26.7471 21.09 26.0368C22.5155 25.2019 23.7717 24.1314 24.8233 22.8547C25.7797 21.6935 26.5375 20.392 27.0769 18.9861C27.5911 17.6456 27.8935 16.2316 27.9771 14.7837C28.0409 13.6645 27.971 12.5378 27.7699 11.4344ZM26.1282 13.9787C26.1277 17.2246 24.8729 20.2668 22.594 22.5446C20.315 24.8224 17.2717 26.0758 14.0282 26.0732C7.34939 26.0687 1.91969 20.6377 1.92425 13.9675C1.92831 7.29377 7.35446 1.86734 14.0211 1.86734C14.0237 1.86734 14.0262 1.86734 14.0287 1.86734C20.701 1.87139 26.1292 7.30492 26.1282 13.9787Z" fill="white"/>
<path d="M19.8789 9.60941C18.185 9.00602 16.3675 8.63771 14.3231 8.48319C13.8185 8.44519 13.309 8.42746 12.8161 8.41024C12.5947 8.40264 12.3658 8.39453 12.1414 8.38491L12.1246 8.3844L12.1079 8.38491C11.0827 8.41378 10.2535 8.46293 9.49819 8.53892C8.9344 8.59566 8.34275 8.67013 7.63713 8.77399C7.27647 8.82668 6.8849 8.90115 6.4047 9.00805C6.1423 9.06631 5.92044 9.22235 5.77911 9.44729C5.6317 9.68236 5.58662 9.96607 5.65247 10.2467C5.76087 10.7083 6.17016 11.0305 6.64885 11.0305C6.72281 11.0305 6.79727 11.0224 6.87021 11.0067C7.57634 10.8547 8.34782 10.7336 9.22769 10.6358C10.0306 10.5467 10.8527 10.4914 11.6713 10.4722C11.8835 10.4671 12.0968 10.4646 12.306 10.4646C13.4006 10.4646 14.4781 10.534 15.5084 10.6708C16.3731 10.7858 17.216 10.955 18.0133 11.1739C19.2847 11.5234 20.4016 11.9829 21.4269 12.5792C21.5961 12.6775 21.785 12.7292 21.9735 12.7292C22.3357 12.7292 22.6629 12.5422 22.8498 12.2286C22.9932 11.988 23.0347 11.7114 22.9673 11.45C22.8984 11.1815 22.7206 10.952 22.4679 10.8035C21.6832 10.344 20.812 9.94176 19.8789 9.60941Z" fill="white"/>
<path d="M20.8614 15.0837C20.5955 14.9241 20.3346 14.7686 20.0666 14.6272C18.4173 13.7569 16.617 13.2376 14.563 13.04C14.0899 12.9944 13.6142 12.9721 13.1543 12.9508C12.9506 12.9412 12.7404 12.9316 12.5368 12.9199L12.5109 12.9184L12.4851 12.9199C12.2693 12.9321 12.0505 12.9422 11.8393 12.9523C11.3545 12.9751 10.8535 12.9989 10.3601 13.043C9.74518 13.0982 9.12973 13.1894 8.53453 13.2776L8.43322 13.2928C8.1374 13.3364 7.84816 13.4017 7.56905 13.4645L7.44039 13.4934C7.20332 13.5461 7.00526 13.6864 6.88268 13.8871C6.7606 14.0867 6.72666 14.3238 6.78694 14.5548C6.88825 14.9454 7.22662 15.2073 7.62781 15.2073C7.69873 15.2073 7.77015 15.1992 7.84107 15.1825C8.55885 15.0168 9.22395 14.9033 9.87435 14.8365C10.6955 14.7519 11.3763 14.6992 12.0171 14.6703C12.2734 14.6586 12.5312 14.6531 12.7835 14.6531C13.8214 14.6531 14.8436 14.7514 15.8212 14.9459C17.3095 15.2413 18.6979 15.7844 19.9486 16.5605C20.0975 16.6532 20.2647 16.7019 20.4323 16.7019C20.7267 16.7019 20.9987 16.5499 21.1598 16.2955C21.2874 16.0939 21.3289 15.8604 21.2763 15.6369C21.2226 15.4084 21.0752 15.2119 20.8614 15.0837Z" fill="white"/>
<path d="M19.2442 18.7286C18.298 18.0989 17.256 17.6303 16.1472 17.3349C15.1376 17.0664 14.0384 16.9271 12.7877 16.9094H12.7847H12.7817H12.7396H12.6966H12.6454C11.6936 16.9134 10.8416 16.9884 10.0412 17.1394C9.58636 17.225 9.13553 17.337 8.69939 17.4449C8.62088 17.4646 8.54186 17.4839 8.46334 17.5031C8.25515 17.5543 8.08546 17.6789 7.98567 17.8542C7.88588 18.0295 7.86511 18.2377 7.9264 18.4414C8.02366 18.7631 8.30023 18.9708 8.63101 18.9708C8.71003 18.9708 8.79007 18.9587 8.86909 18.9353C9.84217 18.644 10.8619 18.4758 11.9874 18.4216C12.2159 18.4105 12.4458 18.4049 12.6702 18.4049C13.4569 18.4049 14.2319 18.4738 14.974 18.6101C16.2525 18.8447 17.4125 19.3026 18.4231 19.9709C18.5548 20.058 18.7042 20.1041 18.8562 20.1041C19.1054 20.1041 19.3359 19.9785 19.4732 19.7672C19.7016 19.4141 19.6034 18.9678 19.2442 18.7286Z" fill="white"/>
</svg>
