<svg width="34" height="26" viewBox="0 0 45 31" fill="none" xmlns="http://www.w3.org/2000/svg">
<path d="M22.7075 0.171082C22.7075 0.171082 8.97751 0.171081 5.53285 1.06281C3.68677 1.57525 2.16933 3.08837 1.65405 4.94849C0.757385 8.37418 0.757385 15.4717 0.757385 15.4717C0.757385 15.4717 0.757385 22.5975 1.65405 25.9707C2.16933 27.8308 3.66243 29.3157 5.53285 29.8281C9.00591 30.7441 22.7075 30.7441 22.7075 30.7441C22.7075 30.7441 36.4658 30.7441 39.9105 29.8523C41.7809 29.3399 43.274 27.8833 43.7649 25.9949C44.6859 22.5934 44.6859 15.4959 44.6859 15.4959C44.6859 15.4959 44.7143 8.37014 43.7649 4.94445C43.2781 3.08433 41.785 1.59946 39.9105 1.11123C36.4658 0.171079 22.7075 0.171082 22.7075 0.171082ZM18.3377 8.91487L29.7631 15.4717L18.3377 22.0003V8.91487Z" fill="#FF0000"/>
</svg>
