<svg width="34" height="26" viewBox="0 0 34 26" fill="none" xmlns="http://www.w3.org/2000/svg">
<path d="M33.7994 12.9193C33.7876 11.2894 33.6962 7.26339 33.1064 5.09238V5.09184C32.647 3.38391 31.3022 2.03691 29.5969 1.57704C27.0489 0.881357 17.929 0.861572 16.8975 0.861572C15.881 0.861572 7.00607 0.880288 4.31797 1.52304L4.19872 1.55566C2.52768 2.01178 1.15449 3.39246 0.694618 5.07633L0.68927 5.10147C0.00802102 7.69332 0 12.7845 0 13C0 13.2176 0.00802102 18.3537 0.688735 20.9087C1.14647 22.6166 2.49346 23.9631 4.20353 24.423C6.77827 25.1186 15.8741 25.1384 16.9029 25.1384C17.9339 25.1384 27.0468 25.1192 29.5926 24.4497L29.6204 24.4433C31.3107 23.9813 32.6427 22.6482 33.1058 20.9558L33.1117 20.9306C33.7924 18.3441 33.8004 13.2476 33.8004 13.0321C33.7999 13.0171 33.7999 12.9775 33.7994 12.9193ZM31.7631 13.0176L31.576 13.0214H31.7631V13.0267C31.7631 13.077 31.7562 18.0842 31.1418 20.4055C30.868 21.4151 30.0718 22.2118 29.0638 22.4851C27.1163 22.9947 19.6177 23.1064 16.8922 23.1064C14.1688 23.1064 6.674 22.9909 4.7265 22.4637C3.71586 22.1899 2.9175 21.3937 2.64265 20.3857C2.02824 18.0693 2.02129 13.0556 2.02129 13.0053C2.02129 12.9551 2.02824 7.94785 2.64265 5.62657C2.91697 4.61967 3.73457 3.79405 4.72543 3.5208C6.67934 3.01066 14.1704 2.8989 16.8922 2.8989C19.6231 2.8989 27.1318 3.01441 29.0584 3.54165C30.0691 3.81597 30.8674 4.61433 31.1418 5.62497L31.1482 5.65438C31.754 7.89063 31.7642 12.4979 31.7631 13.0176Z" fill="white"/>
<path d="M23.1032 11.0766L14.8309 6.31213C14.4924 6.11909 14.1085 6.01642 13.7213 6.01642C13.3294 6.01642 12.9454 6.11855 12.6123 6.31213C11.9273 6.70622 11.5022 7.44308 11.5022 8.23556V17.7591C11.5022 18.5468 11.9278 19.2837 12.6123 19.6831C12.9503 19.8756 13.3342 19.9783 13.7213 19.9783C14.1085 19.9783 14.4924 19.8756 14.8314 19.682L23.1032 14.9181C23.7877 14.524 24.2128 13.7872 24.2128 12.9947C24.2128 12.2054 23.7877 11.4707 23.1032 11.0766ZM13.5395 18.088V7.91205L22.3738 13L13.5395 18.088Z" fill="white"/>
</svg>
